<mxfile host="app.diagrams.net" modified="2021-04-19T15:25:26.065Z" agent="5.0 (Macintosh; Intel Mac OS X 11_2_0) AppleWebKit/537.36 (KHTML, like Gecko) Chrome/89.0.4389.128 Safari/537.36" etag="GWB9yieZXFtA6OS2drfZ" version="14.6.2" type="github" pages="2">
  <diagram name="Components" id="oa-BEnzGHS91n7pEYGGy">
    <mxGraphModel dx="861" dy="658" grid="1" gridSize="10" guides="1" tooltips="1" connect="1" arrows="1" fold="1" page="1" pageScale="1.5" pageWidth="1169" pageHeight="827" background="#ffffff" math="0" shadow="0">
      <root>
        <mxCell id="_ZSbNdaOEy5kNwuSDoqu-0" />
        <mxCell id="_ZSbNdaOEy5kNwuSDoqu-1" parent="_ZSbNdaOEy5kNwuSDoqu-0" />
        <mxCell id="_ZSbNdaOEy5kNwuSDoqu-2" value="" style="group;strokeWidth=3;verticalAlign=middle;" parent="_ZSbNdaOEy5kNwuSDoqu-1" vertex="1" connectable="0">
          <mxGeometry x="680" y="240" width="240" height="160" as="geometry" />
        </mxCell>
        <mxCell id="_ZSbNdaOEy5kNwuSDoqu-3" value="&lt;font style=&quot;font-size: 30px&quot;&gt;App&lt;/font&gt;" style="rounded=1;whiteSpace=wrap;html=1;verticalAlign=middle;strokeWidth=3;" parent="_ZSbNdaOEy5kNwuSDoqu-2" vertex="1">
          <mxGeometry width="240" height="160" as="geometry" />
        </mxCell>
        <mxCell id="_ZSbNdaOEy5kNwuSDoqu-11" value="&lt;font style=&quot;font-size: 30px&quot;&gt;SearchBar&lt;/font&gt;" style="rounded=1;whiteSpace=wrap;html=1;verticalAlign=middle;fillColor=#ffe6cc;strokeColor=#d79b00;strokeWidth=3;" parent="_ZSbNdaOEy5kNwuSDoqu-1" vertex="1">
          <mxGeometry x="400" y="600" width="240" height="80" as="geometry" />
        </mxCell>
        <mxCell id="_ZSbNdaOEy5kNwuSDoqu-20" value="&lt;font style=&quot;font-size: 30px&quot;&gt;VideoDetail&lt;/font&gt;" style="rounded=1;whiteSpace=wrap;html=1;verticalAlign=middle;fillColor=#fff2cc;strokeColor=#d6b656;strokeWidth=3;" parent="_ZSbNdaOEy5kNwuSDoqu-1" vertex="1">
          <mxGeometry x="680" y="600" width="240" height="80" as="geometry" />
        </mxCell>
        <mxCell id="_ZSbNdaOEy5kNwuSDoqu-23" value="&lt;span style=&quot;font-size: 30px&quot;&gt;VideoList&lt;/span&gt;" style="rounded=1;whiteSpace=wrap;html=1;verticalAlign=middle;fillColor=#f8cecc;strokeColor=#b85450;strokeWidth=3;" parent="_ZSbNdaOEy5kNwuSDoqu-1" vertex="1">
          <mxGeometry x="960" y="600" width="240" height="80" as="geometry" />
        </mxCell>
        <mxCell id="_ZSbNdaOEy5kNwuSDoqu-24" style="edgeStyle=orthogonalEdgeStyle;rounded=1;orthogonalLoop=1;jettySize=auto;html=1;startArrow=none;startFill=0;endArrow=classic;endFill=1;strokeWidth=3;" parent="_ZSbNdaOEy5kNwuSDoqu-1" source="_ZSbNdaOEy5kNwuSDoqu-3" target="_ZSbNdaOEy5kNwuSDoqu-20" edge="1">
          <mxGeometry relative="1" as="geometry" />
        </mxCell>
        <mxCell id="_ZSbNdaOEy5kNwuSDoqu-25" style="edgeStyle=orthogonalEdgeStyle;rounded=1;orthogonalLoop=1;jettySize=auto;html=1;entryX=0.5;entryY=0;entryDx=0;entryDy=0;startArrow=none;startFill=0;endArrow=classic;endFill=1;strokeWidth=3;" parent="_ZSbNdaOEy5kNwuSDoqu-1" source="_ZSbNdaOEy5kNwuSDoqu-3" target="_ZSbNdaOEy5kNwuSDoqu-11" edge="1">
          <mxGeometry relative="1" as="geometry">
            <Array as="points">
              <mxPoint x="800" y="440" />
              <mxPoint x="520" y="440" />
            </Array>
          </mxGeometry>
        </mxCell>
        <mxCell id="_ZSbNdaOEy5kNwuSDoqu-26" style="edgeStyle=orthogonalEdgeStyle;rounded=1;orthogonalLoop=1;jettySize=auto;html=1;startArrow=none;startFill=0;endArrow=classic;endFill=1;strokeWidth=3;entryX=0.5;entryY=0;entryDx=0;entryDy=0;" parent="_ZSbNdaOEy5kNwuSDoqu-1" source="_ZSbNdaOEy5kNwuSDoqu-3" target="_ZSbNdaOEy5kNwuSDoqu-23" edge="1">
          <mxGeometry relative="1" as="geometry">
            <mxPoint x="1080" y="480" as="targetPoint" />
            <Array as="points">
              <mxPoint x="800" y="440" />
              <mxPoint x="1080" y="440" />
            </Array>
          </mxGeometry>
        </mxCell>
        <mxCell id="_ZSbNdaOEy5kNwuSDoqu-27" style="edgeStyle=orthogonalEdgeStyle;rounded=1;orthogonalLoop=1;jettySize=auto;html=1;entryX=0.5;entryY=0;entryDx=0;entryDy=0;startArrow=none;startFill=0;endArrow=classic;endFill=1;strokeWidth=3;exitX=0.5;exitY=1;exitDx=0;exitDy=0;" parent="_ZSbNdaOEy5kNwuSDoqu-1" source="_ZSbNdaOEy5kNwuSDoqu-23" target="_ZSbNdaOEy5kNwuSDoqu-35" edge="1">
          <mxGeometry relative="1" as="geometry">
            <mxPoint x="1310" y="840" as="targetPoint" />
            <mxPoint x="1240" y="840" as="sourcePoint" />
            <Array as="points">
              <mxPoint x="1080" y="720" />
              <mxPoint x="1240" y="720" />
            </Array>
          </mxGeometry>
        </mxCell>
        <mxCell id="_ZSbNdaOEy5kNwuSDoqu-35" value="&lt;span style=&quot;font-size: 30px&quot;&gt;VideoItem&lt;/span&gt;" style="rounded=1;whiteSpace=wrap;html=1;verticalAlign=middle;fillColor=#e1d5e7;strokeColor=#9673a6;strokeWidth=3;" parent="_ZSbNdaOEy5kNwuSDoqu-1" vertex="1">
          <mxGeometry x="1120" y="880" width="240" height="80" as="geometry" />
        </mxCell>
        <mxCell id="_ZSbNdaOEy5kNwuSDoqu-36" style="edgeStyle=orthogonalEdgeStyle;rounded=1;orthogonalLoop=1;jettySize=auto;html=1;entryX=0.5;entryY=0;entryDx=0;entryDy=0;startArrow=none;startFill=0;endArrow=classic;endFill=1;strokeWidth=3;exitX=0.5;exitY=1;exitDx=0;exitDy=0;" parent="_ZSbNdaOEy5kNwuSDoqu-1" source="_ZSbNdaOEy5kNwuSDoqu-23" target="_ZSbNdaOEy5kNwuSDoqu-44" edge="1">
          <mxGeometry relative="1" as="geometry">
            <mxPoint x="987" y="840" as="targetPoint" />
            <mxPoint x="917" y="840" as="sourcePoint" />
            <Array as="points">
              <mxPoint x="1080" y="720" />
              <mxPoint x="917" y="720" />
            </Array>
          </mxGeometry>
        </mxCell>
        <mxCell id="_ZSbNdaOEy5kNwuSDoqu-44" value="&lt;span style=&quot;font-size: 30px&quot;&gt;VideoItem&lt;/span&gt;" style="rounded=1;whiteSpace=wrap;html=1;verticalAlign=middle;fillColor=#e1d5e7;strokeColor=#9673a6;strokeWidth=3;" parent="_ZSbNdaOEy5kNwuSDoqu-1" vertex="1">
          <mxGeometry x="797" y="880" width="240" height="80" as="geometry" />
        </mxCell>
      </root>
    </mxGraphModel>
  </diagram>
  <diagram name="Props&amp;State" id="I_OQX6ArAMqyHzyi4Qbx">
    <mxGraphModel dx="861" dy="658" grid="1" gridSize="10" guides="1" tooltips="1" connect="1" arrows="1" fold="1" page="1" pageScale="1.5" pageWidth="1169" pageHeight="827" background="#ffffff" math="0" shadow="0">
      <root>
        <mxCell id="qaqHf1FejobcbyOZBKg7-0" />
        <mxCell id="qaqHf1FejobcbyOZBKg7-1" parent="qaqHf1FejobcbyOZBKg7-0" />
        <mxCell id="qaqHf1FejobcbyOZBKg7-2" value="" style="group;strokeWidth=3;" parent="qaqHf1FejobcbyOZBKg7-1" vertex="1" connectable="0">
          <mxGeometry x="680" y="240" width="240" height="160" as="geometry" />
        </mxCell>
        <mxCell id="qaqHf1FejobcbyOZBKg7-3" value="&lt;font style=&quot;font-size: 30px&quot;&gt;App&lt;/font&gt;" style="rounded=1;whiteSpace=wrap;html=1;verticalAlign=top;strokeWidth=3;" parent="qaqHf1FejobcbyOZBKg7-2" vertex="1">
          <mxGeometry width="240" height="160" as="geometry" />
        </mxCell>
        <mxCell id="qaqHf1FejobcbyOZBKg7-4" value="State" style="shape=table;html=1;whiteSpace=wrap;startSize=25;container=1;collapsible=0;childLayout=tableLayout;fontStyle=1;align=center;fillColor=#d5e8d4;strokeColor=#82b366;rounded=0;swimlaneFillColor=#ffffff;rowLines=1;treeFolding=0;strokeWidth=2;" parent="qaqHf1FejobcbyOZBKg7-2" vertex="1">
          <mxGeometry x="16.363636363636363" y="56.43410852713179" width="207.2727272727273" height="92.4031007751938" as="geometry" />
        </mxCell>
        <mxCell id="qaqHf1FejobcbyOZBKg7-5" value="" style="shape=partialRectangle;html=1;whiteSpace=wrap;collapsible=0;dropTarget=0;pointerEvents=0;fillColor=none;top=0;left=0;bottom=0;right=0;points=[[0,0.5],[1,0.5]];portConstraint=eastwest;rounded=1;" parent="qaqHf1FejobcbyOZBKg7-4" vertex="1">
          <mxGeometry y="25" width="207.2727272727273" height="34" as="geometry" />
        </mxCell>
        <mxCell id="qaqHf1FejobcbyOZBKg7-6" value="videos" style="shape=partialRectangle;html=1;whiteSpace=wrap;connectable=0;fillColor=none;top=0;left=0;bottom=0;right=0;overflow=hidden;rounded=1;" parent="qaqHf1FejobcbyOZBKg7-5" vertex="1">
          <mxGeometry width="103" height="34" as="geometry" />
        </mxCell>
        <mxCell id="qaqHf1FejobcbyOZBKg7-7" value="[ video, ... ]" style="shape=partialRectangle;html=1;whiteSpace=wrap;connectable=0;fillColor=none;top=0;left=0;bottom=0;right=0;overflow=hidden;rounded=1;" parent="qaqHf1FejobcbyOZBKg7-5" vertex="1">
          <mxGeometry x="103" width="104" height="34" as="geometry" />
        </mxCell>
        <mxCell id="qaqHf1FejobcbyOZBKg7-8" value="" style="shape=partialRectangle;html=1;whiteSpace=wrap;collapsible=0;dropTarget=0;pointerEvents=0;fillColor=none;top=0;left=0;bottom=0;right=0;points=[[0,0.5],[1,0.5]];portConstraint=eastwest;rounded=1;" parent="qaqHf1FejobcbyOZBKg7-4" vertex="1">
          <mxGeometry y="59" width="207.2727272727273" height="33" as="geometry" />
        </mxCell>
        <mxCell id="qaqHf1FejobcbyOZBKg7-9" value="selectedVideo" style="shape=partialRectangle;html=1;whiteSpace=wrap;connectable=0;fillColor=none;top=0;left=0;bottom=0;right=0;overflow=hidden;rounded=1;" parent="qaqHf1FejobcbyOZBKg7-8" vertex="1">
          <mxGeometry width="103" height="33" as="geometry" />
        </mxCell>
        <mxCell id="qaqHf1FejobcbyOZBKg7-10" value="video" style="shape=partialRectangle;html=1;whiteSpace=wrap;connectable=0;fillColor=none;top=0;left=0;bottom=0;right=0;overflow=hidden;rounded=1;" parent="qaqHf1FejobcbyOZBKg7-8" vertex="1">
          <mxGeometry x="103" width="104" height="33" as="geometry" />
        </mxCell>
        <mxCell id="qaqHf1FejobcbyOZBKg7-11" value="&lt;font style=&quot;font-size: 30px&quot;&gt;SearchBar&lt;/font&gt;" style="rounded=1;whiteSpace=wrap;html=1;verticalAlign=middle;fillColor=#ffe6cc;strokeColor=#d79b00;strokeWidth=3;" parent="qaqHf1FejobcbyOZBKg7-1" vertex="1">
          <mxGeometry x="400" y="600" width="240" height="80" as="geometry" />
        </mxCell>
        <mxCell id="qaqHf1FejobcbyOZBKg7-12" style="edgeStyle=orthogonalEdgeStyle;rounded=1;orthogonalLoop=1;jettySize=auto;html=1;entryX=0.5;entryY=0;entryDx=0;entryDy=0;startArrow=none;startFill=0;endArrow=classic;endFill=1;strokeWidth=3;" parent="qaqHf1FejobcbyOZBKg7-1" source="qaqHf1FejobcbyOZBKg7-13" target="qaqHf1FejobcbyOZBKg7-23" edge="1">
          <mxGeometry relative="1" as="geometry">
            <mxPoint x="1030" y="560" as="targetPoint" />
          </mxGeometry>
        </mxCell>
        <mxCell id="qaqHf1FejobcbyOZBKg7-13" value="Props" style="shape=table;html=1;whiteSpace=wrap;startSize=25;container=1;collapsible=0;childLayout=tableLayout;fontStyle=1;align=center;fillColor=#dae8fc;strokeColor=#6c8ebf;rounded=0;swimlaneFillColor=#ffffff;rowLines=1;treeFolding=0;strokeWidth=2;" parent="qaqHf1FejobcbyOZBKg7-1" vertex="1">
          <mxGeometry x="980" y="480" width="200" height="80" as="geometry" />
        </mxCell>
        <mxCell id="qaqHf1FejobcbyOZBKg7-14" value="" style="shape=partialRectangle;html=1;whiteSpace=wrap;collapsible=0;dropTarget=0;pointerEvents=0;fillColor=none;top=0;left=0;bottom=0;right=0;points=[[0,0.5],[1,0.5]];portConstraint=eastwest;rounded=1;" parent="qaqHf1FejobcbyOZBKg7-13" vertex="1">
          <mxGeometry y="25" width="200" height="28" as="geometry" />
        </mxCell>
        <mxCell id="qaqHf1FejobcbyOZBKg7-15" value="videos" style="shape=partialRectangle;html=1;whiteSpace=wrap;connectable=0;fillColor=none;top=0;left=0;bottom=0;right=0;overflow=hidden;rounded=1;" parent="qaqHf1FejobcbyOZBKg7-14" vertex="1">
          <mxGeometry width="100" height="28" as="geometry" />
        </mxCell>
        <mxCell id="qaqHf1FejobcbyOZBKg7-16" value="[ video, ... ]" style="shape=partialRectangle;html=1;whiteSpace=wrap;connectable=0;fillColor=none;top=0;left=0;bottom=0;right=0;overflow=hidden;rounded=1;" parent="qaqHf1FejobcbyOZBKg7-14" vertex="1">
          <mxGeometry x="100" width="100" height="28" as="geometry" />
        </mxCell>
        <mxCell id="qaqHf1FejobcbyOZBKg7-17" value="" style="shape=partialRectangle;html=1;whiteSpace=wrap;collapsible=0;dropTarget=0;pointerEvents=0;fillColor=none;top=0;left=0;bottom=0;right=0;points=[[0,0.5],[1,0.5]];portConstraint=eastwest;rounded=1;" parent="qaqHf1FejobcbyOZBKg7-13" vertex="1">
          <mxGeometry y="53" width="200" height="27" as="geometry" />
        </mxCell>
        <mxCell id="qaqHf1FejobcbyOZBKg7-18" value="onVideoSelect" style="shape=partialRectangle;html=1;whiteSpace=wrap;connectable=0;fillColor=none;top=0;left=0;bottom=0;right=0;overflow=hidden;rounded=1;" parent="qaqHf1FejobcbyOZBKg7-17" vertex="1">
          <mxGeometry width="100" height="27" as="geometry" />
        </mxCell>
        <mxCell id="qaqHf1FejobcbyOZBKg7-19" value="() =&amp;gt; {}" style="shape=partialRectangle;html=1;whiteSpace=wrap;connectable=0;fillColor=none;top=0;left=0;bottom=0;right=0;overflow=hidden;rounded=1;" parent="qaqHf1FejobcbyOZBKg7-17" vertex="1">
          <mxGeometry x="100" width="100" height="27" as="geometry" />
        </mxCell>
        <mxCell id="qaqHf1FejobcbyOZBKg7-20" value="&lt;font style=&quot;font-size: 30px&quot;&gt;VideoDetail&lt;/font&gt;" style="rounded=1;whiteSpace=wrap;html=1;verticalAlign=middle;fillColor=#fff2cc;strokeColor=#d6b656;strokeWidth=3;" parent="qaqHf1FejobcbyOZBKg7-1" vertex="1">
          <mxGeometry x="680" y="600" width="240" height="80" as="geometry" />
        </mxCell>
        <mxCell id="qaqHf1FejobcbyOZBKg7-21" style="edgeStyle=orthogonalEdgeStyle;rounded=1;orthogonalLoop=1;jettySize=auto;html=1;entryX=0.5;entryY=0;entryDx=0;entryDy=0;startArrow=none;startFill=0;endArrow=none;endFill=0;strokeWidth=3;" parent="qaqHf1FejobcbyOZBKg7-1" source="qaqHf1FejobcbyOZBKg7-23" target="qaqHf1FejobcbyOZBKg7-28" edge="1">
          <mxGeometry relative="1" as="geometry">
            <Array as="points">
              <mxPoint x="1080" y="720" />
              <mxPoint x="1240" y="720" />
            </Array>
          </mxGeometry>
        </mxCell>
        <mxCell id="qaqHf1FejobcbyOZBKg7-22" style="edgeStyle=orthogonalEdgeStyle;rounded=1;orthogonalLoop=1;jettySize=auto;html=1;entryX=0.5;entryY=0;entryDx=0;entryDy=0;startArrow=none;startFill=0;endArrow=none;endFill=0;strokeWidth=3;" parent="qaqHf1FejobcbyOZBKg7-1" source="qaqHf1FejobcbyOZBKg7-23" target="qaqHf1FejobcbyOZBKg7-37" edge="1">
          <mxGeometry relative="1" as="geometry" />
        </mxCell>
        <mxCell id="qaqHf1FejobcbyOZBKg7-23" value="&lt;span style=&quot;font-size: 30px&quot;&gt;VideoList&lt;/span&gt;" style="rounded=1;whiteSpace=wrap;html=1;verticalAlign=middle;fillColor=#f8cecc;strokeColor=#b85450;strokeWidth=3;" parent="qaqHf1FejobcbyOZBKg7-1" vertex="1">
          <mxGeometry x="960" y="600" width="240" height="80" as="geometry" />
        </mxCell>
        <mxCell id="qaqHf1FejobcbyOZBKg7-24" style="edgeStyle=orthogonalEdgeStyle;rounded=1;orthogonalLoop=1;jettySize=auto;html=1;startArrow=none;startFill=0;endArrow=classic;endFill=1;strokeWidth=3;" parent="qaqHf1FejobcbyOZBKg7-1" source="qaqHf1FejobcbyOZBKg7-3" target="qaqHf1FejobcbyOZBKg7-20" edge="1">
          <mxGeometry relative="1" as="geometry" />
        </mxCell>
        <mxCell id="qaqHf1FejobcbyOZBKg7-25" style="edgeStyle=orthogonalEdgeStyle;rounded=1;orthogonalLoop=1;jettySize=auto;html=1;entryX=0.5;entryY=0;entryDx=0;entryDy=0;startArrow=none;startFill=0;endArrow=classic;endFill=1;strokeWidth=3;" parent="qaqHf1FejobcbyOZBKg7-1" source="qaqHf1FejobcbyOZBKg7-3" target="qaqHf1FejobcbyOZBKg7-11" edge="1">
          <mxGeometry relative="1" as="geometry">
            <Array as="points">
              <mxPoint x="800" y="440" />
              <mxPoint x="520" y="440" />
            </Array>
          </mxGeometry>
        </mxCell>
        <mxCell id="qaqHf1FejobcbyOZBKg7-26" style="edgeStyle=orthogonalEdgeStyle;rounded=1;orthogonalLoop=1;jettySize=auto;html=1;startArrow=none;startFill=0;endArrow=none;endFill=0;strokeWidth=3;" parent="qaqHf1FejobcbyOZBKg7-1" source="qaqHf1FejobcbyOZBKg7-3" target="qaqHf1FejobcbyOZBKg7-13" edge="1">
          <mxGeometry relative="1" as="geometry">
            <Array as="points">
              <mxPoint x="800" y="440" />
              <mxPoint x="1080" y="440" />
            </Array>
          </mxGeometry>
        </mxCell>
        <mxCell id="qaqHf1FejobcbyOZBKg7-27" style="edgeStyle=orthogonalEdgeStyle;rounded=1;orthogonalLoop=1;jettySize=auto;html=1;entryX=0.5;entryY=0;entryDx=0;entryDy=0;startArrow=none;startFill=0;endArrow=classic;endFill=1;strokeWidth=3;" parent="qaqHf1FejobcbyOZBKg7-1" source="qaqHf1FejobcbyOZBKg7-28" target="qaqHf1FejobcbyOZBKg7-35" edge="1">
          <mxGeometry relative="1" as="geometry">
            <mxPoint x="1310" y="840" as="targetPoint" />
          </mxGeometry>
        </mxCell>
        <mxCell id="qaqHf1FejobcbyOZBKg7-28" value="Props" style="shape=table;html=1;whiteSpace=wrap;startSize=25;container=1;collapsible=0;childLayout=tableLayout;fontStyle=1;align=center;fillColor=#dae8fc;strokeColor=#6c8ebf;rounded=0;swimlaneFillColor=#ffffff;rowLines=1;treeFolding=0;strokeWidth=2;" parent="qaqHf1FejobcbyOZBKg7-1" vertex="1">
          <mxGeometry x="1140" y="760" width="200" height="80" as="geometry" />
        </mxCell>
        <mxCell id="qaqHf1FejobcbyOZBKg7-29" value="" style="shape=partialRectangle;html=1;whiteSpace=wrap;collapsible=0;dropTarget=0;pointerEvents=0;fillColor=none;top=0;left=0;bottom=0;right=0;points=[[0,0.5],[1,0.5]];portConstraint=eastwest;rounded=1;" parent="qaqHf1FejobcbyOZBKg7-28" vertex="1">
          <mxGeometry y="25" width="200" height="28" as="geometry" />
        </mxCell>
        <mxCell id="qaqHf1FejobcbyOZBKg7-30" value="videos" style="shape=partialRectangle;html=1;whiteSpace=wrap;connectable=0;fillColor=none;top=0;left=0;bottom=0;right=0;overflow=hidden;rounded=1;" parent="qaqHf1FejobcbyOZBKg7-29" vertex="1">
          <mxGeometry width="100" height="28" as="geometry" />
        </mxCell>
        <mxCell id="qaqHf1FejobcbyOZBKg7-31" value="video" style="shape=partialRectangle;html=1;whiteSpace=wrap;connectable=0;fillColor=none;top=0;left=0;bottom=0;right=0;overflow=hidden;rounded=1;" parent="qaqHf1FejobcbyOZBKg7-29" vertex="1">
          <mxGeometry x="100" width="100" height="28" as="geometry" />
        </mxCell>
        <mxCell id="qaqHf1FejobcbyOZBKg7-32" value="" style="shape=partialRectangle;html=1;whiteSpace=wrap;collapsible=0;dropTarget=0;pointerEvents=0;fillColor=none;top=0;left=0;bottom=0;right=0;points=[[0,0.5],[1,0.5]];portConstraint=eastwest;rounded=1;" parent="qaqHf1FejobcbyOZBKg7-28" vertex="1">
          <mxGeometry y="53" width="200" height="27" as="geometry" />
        </mxCell>
        <mxCell id="qaqHf1FejobcbyOZBKg7-33" value="onVideoSelect" style="shape=partialRectangle;html=1;whiteSpace=wrap;connectable=0;fillColor=none;top=0;left=0;bottom=0;right=0;overflow=hidden;rounded=1;" parent="qaqHf1FejobcbyOZBKg7-32" vertex="1">
          <mxGeometry width="100" height="27" as="geometry" />
        </mxCell>
        <mxCell id="qaqHf1FejobcbyOZBKg7-34" value="() =&amp;gt; {}" style="shape=partialRectangle;html=1;whiteSpace=wrap;connectable=0;fillColor=none;top=0;left=0;bottom=0;right=0;overflow=hidden;rounded=1;" parent="qaqHf1FejobcbyOZBKg7-32" vertex="1">
          <mxGeometry x="100" width="100" height="27" as="geometry" />
        </mxCell>
        <mxCell id="qaqHf1FejobcbyOZBKg7-35" value="&lt;span style=&quot;font-size: 30px&quot;&gt;VideoItem&lt;/span&gt;" style="rounded=1;whiteSpace=wrap;html=1;verticalAlign=middle;fillColor=#e1d5e7;strokeColor=#9673a6;strokeWidth=3;" parent="qaqHf1FejobcbyOZBKg7-1" vertex="1">
          <mxGeometry x="1120" y="880" width="240" height="80" as="geometry" />
        </mxCell>
        <mxCell id="qaqHf1FejobcbyOZBKg7-36" style="edgeStyle=orthogonalEdgeStyle;rounded=1;orthogonalLoop=1;jettySize=auto;html=1;entryX=0.5;entryY=0;entryDx=0;entryDy=0;startArrow=none;startFill=0;endArrow=classic;endFill=1;strokeWidth=3;" parent="qaqHf1FejobcbyOZBKg7-1" source="qaqHf1FejobcbyOZBKg7-37" target="qaqHf1FejobcbyOZBKg7-44" edge="1">
          <mxGeometry relative="1" as="geometry">
            <mxPoint x="987" y="840" as="targetPoint" />
          </mxGeometry>
        </mxCell>
        <mxCell id="qaqHf1FejobcbyOZBKg7-37" value="Props" style="shape=table;html=1;whiteSpace=wrap;startSize=25;container=1;collapsible=0;childLayout=tableLayout;fontStyle=1;align=center;fillColor=#dae8fc;strokeColor=#6c8ebf;rounded=0;swimlaneFillColor=#ffffff;rowLines=1;treeFolding=0;strokeWidth=2;" parent="qaqHf1FejobcbyOZBKg7-1" vertex="1">
          <mxGeometry x="817" y="760" width="200" height="80" as="geometry" />
        </mxCell>
        <mxCell id="qaqHf1FejobcbyOZBKg7-38" value="" style="shape=partialRectangle;html=1;whiteSpace=wrap;collapsible=0;dropTarget=0;pointerEvents=0;fillColor=none;top=0;left=0;bottom=0;right=0;points=[[0,0.5],[1,0.5]];portConstraint=eastwest;rounded=1;" parent="qaqHf1FejobcbyOZBKg7-37" vertex="1">
          <mxGeometry y="25" width="200" height="28" as="geometry" />
        </mxCell>
        <mxCell id="qaqHf1FejobcbyOZBKg7-39" value="videos" style="shape=partialRectangle;html=1;whiteSpace=wrap;connectable=0;fillColor=none;top=0;left=0;bottom=0;right=0;overflow=hidden;rounded=1;" parent="qaqHf1FejobcbyOZBKg7-38" vertex="1">
          <mxGeometry width="100" height="28" as="geometry" />
        </mxCell>
        <mxCell id="qaqHf1FejobcbyOZBKg7-40" value="video" style="shape=partialRectangle;html=1;whiteSpace=wrap;connectable=0;fillColor=none;top=0;left=0;bottom=0;right=0;overflow=hidden;rounded=1;" parent="qaqHf1FejobcbyOZBKg7-38" vertex="1">
          <mxGeometry x="100" width="100" height="28" as="geometry" />
        </mxCell>
        <mxCell id="qaqHf1FejobcbyOZBKg7-41" value="" style="shape=partialRectangle;html=1;whiteSpace=wrap;collapsible=0;dropTarget=0;pointerEvents=0;fillColor=none;top=0;left=0;bottom=0;right=0;points=[[0,0.5],[1,0.5]];portConstraint=eastwest;rounded=1;" parent="qaqHf1FejobcbyOZBKg7-37" vertex="1">
          <mxGeometry y="53" width="200" height="27" as="geometry" />
        </mxCell>
        <mxCell id="qaqHf1FejobcbyOZBKg7-42" value="onVideoSelect" style="shape=partialRectangle;html=1;whiteSpace=wrap;connectable=0;fillColor=none;top=0;left=0;bottom=0;right=0;overflow=hidden;rounded=1;" parent="qaqHf1FejobcbyOZBKg7-41" vertex="1">
          <mxGeometry width="100" height="27" as="geometry" />
        </mxCell>
        <mxCell id="qaqHf1FejobcbyOZBKg7-43" value="() =&amp;gt; {}" style="shape=partialRectangle;html=1;whiteSpace=wrap;connectable=0;fillColor=none;top=0;left=0;bottom=0;right=0;overflow=hidden;rounded=1;" parent="qaqHf1FejobcbyOZBKg7-41" vertex="1">
          <mxGeometry x="100" width="100" height="27" as="geometry" />
        </mxCell>
        <mxCell id="qaqHf1FejobcbyOZBKg7-44" value="&lt;span style=&quot;font-size: 30px&quot;&gt;VideoItem&lt;/span&gt;" style="rounded=1;whiteSpace=wrap;html=1;verticalAlign=middle;fillColor=#e1d5e7;strokeColor=#9673a6;strokeWidth=3;" parent="qaqHf1FejobcbyOZBKg7-1" vertex="1">
          <mxGeometry x="797" y="880" width="240" height="80" as="geometry" />
        </mxCell>
      </root>
    </mxGraphModel>
  </diagram>
</mxfile>
